<?xml version="1.0" encoding="UTF-8" standalone="no"?>
<!DOCTYPE svg PUBLIC "-//W3C//DTD SVG 1.1//EN" "http://www.w3.org/Graphics/SVG/1.1/DTD/svg11.dtd">
<svg width="100%" height="100%" viewBox="0 0 198 258" version="1.1" xmlns="http://www.w3.org/2000/svg" xmlns:xlink="http://www.w3.org/1999/xlink" xml:space="preserve" xmlns:serif="http://www.serif.com/" style="fill-rule:evenodd;clip-rule:evenodd;stroke-linejoin:round;stroke-miterlimit:2;">
    <g transform="matrix(1,0,0,1,-545.406853,-417.305178)">
        <g transform="matrix(2.131191,-0,-0,1.431235,-317.717576,-441.535723)">
            <path d="M410.266,683.172C410.251,680.055 410.228,679.289 410.194,675.52C410.136,668.835 410.077,662.303 410.018,655.923C409.611,629.698 409.078,625.245 408.38,620.008C407.708,614.96 407.159,611.549 406.71,609.786L405.131,603.908C404.899,603.046 404.97,602.069 405.32,601.3C405.669,600.531 406.252,600.07 406.876,600.07L439.914,600.07C440.656,600.07 441.329,600.72 441.631,601.73C441.933,602.74 441.807,603.919 441.311,604.741C437.341,611.309 435.183,629.447 434.742,640.614L434.74,640.654C434.567,644.175 434.481,647.867 434.481,651.732C434.481,653.135 434.399,660.473 434.299,668.958C423.411,677.042 415.818,681.153 410.266,683.172ZM435.787,689.512C446.322,683.084 464.191,669.282 468.137,647.868C467.872,629.636 465.672,611.568 461.292,604.813C460.768,604.005 460.619,602.809 460.914,601.775C461.208,600.741 461.889,600.07 462.644,600.07L495.681,600.07C496.32,600.07 496.916,600.553 497.262,601.353C497.608,602.153 497.657,603.16 497.392,604.027C495.722,609.499 494.695,614.553 494.333,619.196C493.955,624.038 493.154,631.565 492.978,637.497C492.802,643.425 492.656,649.571 492.539,655.934C492.363,670.779 492.275,684.226 492.275,696.277C492.275,744.856 493.436,759.68 495.879,770.591C496.27,772.341 496.775,774.214 497.39,776.214C497.657,777.08 497.609,778.089 497.263,778.891C496.918,779.693 496.322,780.178 495.681,780.178L462.644,780.178C461.933,780.178 461.282,779.581 460.964,778.634C460.645,777.688 460.712,776.554 461.137,775.706C463.875,770.243 465.583,765.563 466.185,761.609C466.815,757.47 467.3,752.585 467.644,746.953L467.646,746.922C467.646,746.922 468.781,732.21 468.781,719.851L468.695,699.346C463.056,700.615 452.25,705.673 433.864,723.243L433.864,723.262C433.864,756.606 434.938,756.983 437.245,765.419C438.133,768.558 439.528,771.977 441.413,775.693C441.843,776.54 441.914,777.676 441.596,778.627C441.278,779.577 440.627,780.178 439.914,780.178L406.876,780.178C406.246,780.178 405.658,779.709 405.31,778.928C404.962,778.147 404.899,777.158 405.144,776.294C406.935,769.957 408.003,764.671 408.311,760.419C408.632,755.982 408.968,750.503 409.319,743.98C409.893,731.772 410.21,718.001 410.271,702.668C419.287,700.704 432.747,691.62 435.787,689.512Z" style="fill:white;"/>
        </g>
    </g>
</svg>
